<svg xmlns="http://www.w3.org/2000/svg" viewBox="0 0 512 512" width="512" height="512">
  <defs>
    <linearGradient id="sky" x1="0" y1="0" x2="0" y2="1">
      <stop offset="0" stop-color="#3D1566"/>
      <stop offset="0.55" stop-color="#1A0A38"/>
      <stop offset="1" stop-color="#0B0520"/>
    </linearGradient>
    <linearGradient id="sun" x1="0" y1="0" x2="0" y2="1">
      <stop offset="0" stop-color="#FFC2E6"/>
      <stop offset="0.35" stop-color="#FF3CAC"/>
      <stop offset="1" stop-color="#7B2FF7"/>
    </linearGradient>
    <linearGradient id="floorFade" x1="0" y1="0" x2="0" y2="1">
      <stop offset="0" stop-color="#21D4FD" stop-opacity="0"/>
      <stop offset="0.45" stop-color="#21D4FD" stop-opacity="0.85"/>
      <stop offset="1" stop-color="#21D4FD" stop-opacity="0.95"/>
    </linearGradient>
    <clipPath id="round"><rect x="0" y="0" width="512" height="512" rx="114" ry="114"/></clipPath>
    <clipPath id="sunClip"><circle cx="256" cy="222" r="118"/></clipPath>
    <clipPath id="floorClip"><rect x="0" y="318" width="512" height="194"/></clipPath>
  </defs>

  <g clip-path="url(#round)">
    <rect x="0" y="0" width="512" height="512" fill="url(#sky)"/>

    <circle cx="256" cy="222" r="118" fill="url(#sun)"/>
    <g clip-path="url(#sunClip)">
      <rect x="130" y="252" width="252" height="9" fill="#1A0A38" opacity="0.92"/>
      <rect x="130" y="272" width="252" height="12" fill="#1A0A38" opacity="0.92"/>
      <rect x="130" y="295" width="252" height="16" fill="#1A0A38" opacity="0.92"/>
      <rect x="130" y="322" width="252" height="22" fill="#1A0A38" opacity="0.92"/>
    </g>

    <rect x="0" y="316" width="512" height="4" fill="#21D4FD" opacity="0.9"/>

    <g clip-path="url(#floorClip)" stroke="url(#floorFade)" fill="none" stroke-width="3">
      <path d="M256 318 L-140 512"/>
      <path d="M256 318 L-20 512"/>
      <path d="M256 318 L96 512"/>
      <path d="M256 318 L188 512"/>
      <path d="M256 318 L256 512"/>
      <path d="M256 318 L324 512"/>
      <path d="M256 318 L416 512"/>
      <path d="M256 318 L532 512"/>
      <path d="M256 318 L652 512"/>
    </g>
    <g clip-path="url(#floorClip)" stroke="#21D4FD" fill="none">
      <path d="M0 336 H512" stroke-width="2" opacity="0.35"/>
      <path d="M0 360 H512" stroke-width="2.5" opacity="0.5"/>
      <path d="M0 394 H512" stroke-width="3" opacity="0.65"/>
      <path d="M0 440 H512" stroke-width="3.5" opacity="0.8"/>
      <path d="M0 498 H512" stroke-width="4" opacity="0.9"/>
    </g>
  </g>
</svg>
